<svg xmlns="http://www.w3.org/2000/svg" viewBox="0 0 2862.98 1787.18"><defs><style>.cls-1,.cls-2{fill:#6099a7;}.cls-2,.cls-5{opacity:0.1;}.cls-3{fill:#1f2428;}.cls-4,.cls-5{fill:#6199a6;}</style></defs><title>tg-responsive-devices</title><g id="Layer_2" data-name="Layer 2"><g id="Layer_1-2" data-name="Layer 1"><path class="cls-1" d="M2301.16,0H323.8a61.33,61.33,0,0,0-61.32,61.32V1388.8a61.33,61.33,0,0,0,61.32,61.32h746.34c-1.62,26-4.68,61.58-8.57,95.36-10.57,91.5-18.8,99.49-20.34,100.16-7.52,3.28-30.46,6.8-50.69,9.9-36.19,5.56-41.2,6.8-41.2,10.23v5.17c0,1.29,0,2.35,6.78,3.24v6.06c0,3.89,115.58,4.56,220.2,4.56,52.93,0,103-.17,134-.19s81.07.19,134,.19c104.63,0,220.2-.67,220.2-4.56v-6.06c6.77-.89,6.77-2,6.77-3.24v-5.17c0-3.43-5-4.67-41.19-10.23-20.24-3.1-43.17-6.62-50.69-9.9-1.54-.67-9.78-8.66-20.34-100.16-3.9-33.78-7-69.39-8.58-95.36h750.69a61.32,61.32,0,0,0,61.32-61.32V61.32A61.32,61.32,0,0,0,2301.16,0ZM1661.5,1678.24c-4.53.84-20.53,2.06-72.86,2.81-35.08.51-82.29.75-144.34.75-32.09,0-62.6-.06-89.52-.11-17.13,0-32.29-.07-44.47-.08s-27.35,0-44.47.08c-26.92,0-57.43.11-89.52.11-62,0-109.26-.24-144.34-.75-52.33-.75-68.33-2-72.86-2.81v-3.73c9.42.91,27.94,1.61,64.36,2.17,36.16.56,85.8.83,151.75.83,32.61,0,63.49-.07,90.73-.12,17.13,0,32.25-.07,44.35-.07s27.22,0,44.35.07c27.24,0,58.13.12,90.72.12,66,0,115.6-.27,151.76-.83,36.41-.56,54.93-1.26,64.36-2.17Zm-106.42-132.3c11.36,98.42,19.91,102.14,22.71,103.37,8,3.48,30.21,6.89,51.68,10.19,15.3,2.34,34.18,5.24,37.8,7v3.22c-9.62,2.48-84.21,3.74-221.89,3.74-32.59,0-63.47-.07-90.71-.12-17.14,0-32.26-.07-44.36-.07s-27.23,0-44.36.07c-27.24,0-58.12.12-90.72.12-137.67,0-212.27-1.26-221.89-3.74v-3.22c3.63-1.81,22.51-4.71,37.81-7,21.47-3.3,43.68-6.71,51.67-10.19,2.81-1.23,11.36-5,22.72-103.37,3.92-33.93,7-69.73,8.61-95.82h472.32C1548.1,1476.21,1551.16,1512,1555.08,1545.94Zm803.4-157.14a57.39,57.39,0,0,1-57.32,57.32H323.8a57.39,57.39,0,0,1-57.32-57.32V1260.1h2092Zm-2092-132.7V61.32A57.39,57.39,0,0,1,323.8,4H2301.16a57.39,57.39,0,0,1,57.32,57.32V1256.1Z"/><path class="cls-1" d="M2272.48,84h-1920a6,6,0,0,0-6,6V1170a6,6,0,0,0,6,6h1920a6,6,0,0,0,6-6V90A6,6,0,0,0,2272.48,84Zm0,1086h-1920V90h1920Z"/><path class="cls-1" d="M1312.48,52.17a8,8,0,1,0-8-8A8,8,0,0,0,1312.48,52.17Zm0-12a4,4,0,1,1-4,4A4,4,0,0,1,1312.48,40.17Z"/><rect class="cls-2" x="352.48" y="90" width="1920" height="1080"/><rect class="cls-3" x="2409.98" y="1721.53" width="14" height="14" rx="1.08" ry="1.08"/><polygon class="cls-3" points="2033.72 645.07 2033.71 645.07 2033.71 1669.07 2801.71 1669.07 2801.71 1669.05 2033.72 1669.05 2033.72 645.07"/><path class="cls-3" d="M2417.12,1703.25a26,26,0,0,0-26,26c0,.12,0,.24,0,.35v.28a26,26,0,1,0,26-26.63Zm10.86,31.21a5.08,5.08,0,0,1-5.08,5.07h-11.85a5.07,5.07,0,0,1-5.07-5.07v-11.85a5.08,5.08,0,0,1,5.07-5.08h11.85a5.09,5.09,0,0,1,5.08,5.08Z"/><circle class="cls-3" cx="2417.17" cy="588.88" r="4.5"/><path class="cls-3" d="M2809.47,541.55H2023.63a36.9,36.9,0,0,0-26.39,11.25A38.69,38.69,0,0,0,1986,580.13V1734.6c0,21.27,19.14,38.58,42.66,38.58h777.75a43.72,43.72,0,0,0,30.16-11.52,39.83,39.83,0,0,0,12.43-29.44V580.13a38,38,0,0,0-11.37-27.24A39.81,39.81,0,0,0,2809.47,541.55Zm-392.3,39.83a7.5,7.5,0,1,1-7.5,7.5A7.5,7.5,0,0,1,2417.17,581.38Zm-21.5,3.65a4,4,0,1,1-4,4A4,4,0,0,1,2395.67,585Zm21.45,1174.22a30,30,0,0,1-30-29.28c0-.24,0-.48,0-.72a30,30,0,1,1,30,30Zm389.59-90.18a5,5,0,0,1-5,5h-768a5,5,0,0,1-5-5v-1024a5,5,0,0,1,5-5h768a5,5,0,0,1,5,5Z"/><path class="cls-3" d="M2809.44,531.55H2023.6c-25.87,0-47.62,21.75-47.62,48.58V1734.6c0,26.83,23.61,48.58,52.66,48.58h777.74c28.58,0,52.6-21,52.6-51V580.13C2859,553.3,2837.23,531.55,2809.44,531.55ZM2853,1732.22a43.77,43.77,0,0,1-13.69,32.35,47.72,47.72,0,0,1-32.9,12.61H2028.67c-25.73,0-46.66-19.11-46.66-42.58V580.13A42.67,42.67,0,0,1,1994.39,550a40.86,40.86,0,0,1,29.24-12.44h785.84a43.71,43.71,0,0,1,31,12.5A42,42,0,0,1,2853,580.13Z"/><path class="cls-1" d="M2809.44,527.55H2023.6A50.82,50.82,0,0,0,1987.24,543,52.64,52.64,0,0,0,1972,580.13V1734.6c0,29,25.42,52.58,56.66,52.58h777.74a57.68,57.68,0,0,0,39.75-15.31,53.7,53.7,0,0,0,16.85-39.65V580.13a51.85,51.85,0,0,0-15.54-37.2A53.7,53.7,0,0,0,2809.44,527.55ZM2859,1732.22c0,30-24,51-52.6,51H2028.64c-29.05,0-52.66-21.75-52.66-48.58V580.13c0-26.83,21.75-48.58,47.62-48.58h785.84c27.79,0,49.54,21.75,49.54,48.58Z"/><path class="cls-1" d="M2809.47,537.55H2023.63A40.86,40.86,0,0,0,1994.39,550,42.67,42.67,0,0,0,1982,580.13V1734.6c0,23.47,20.93,42.58,46.66,42.58h777.75a47.72,47.72,0,0,0,32.9-12.61,43.77,43.77,0,0,0,13.69-32.35V580.13a42,42,0,0,0-12.56-30.08A43.71,43.71,0,0,0,2809.47,537.55ZM2849,1732.22a39.83,39.83,0,0,1-12.43,29.44,43.72,43.72,0,0,1-30.16,11.52H2028.67c-23.52,0-42.66-17.31-42.66-38.58V580.13a38.69,38.69,0,0,1,11.23-27.33,36.9,36.9,0,0,1,26.39-11.25h785.84a39.81,39.81,0,0,1,28.17,11.34A38,38,0,0,1,2849,580.13Z"/><path class="cls-1" d="M2801.71,640.07h-768a5,5,0,0,0-5,5v1024a5,5,0,0,0,5,5h768a5,5,0,0,0,5-5v-1024A5,5,0,0,0,2801.71,640.07Zm0,1029h0v0h-768v-1024h768Z"/><path class="cls-1" d="M2417.17,596.38a7.5,7.5,0,1,0-7.5-7.5A7.5,7.5,0,0,0,2417.17,596.38Zm0-12a4.5,4.5,0,1,1-4.5,4.5A4.5,4.5,0,0,1,2417.17,584.38Z"/><ellipse class="cls-1" cx="2395.67" cy="589.07" rx="4.02" ry="4.04"/><path class="cls-1" d="M2417.12,1699.25a30,30,0,0,0-30,30c0,.24,0,.48,0,.72a30,30,0,1,0,30-30.72Zm0,56a26,26,0,0,1-26-25.37v-.28c0-.11,0-.23,0-.35a26,26,0,1,1,26,26Z"/><path class="cls-1" d="M2422.9,1717.53h-11.85a5.08,5.08,0,0,0-5.07,5.08v11.85a5.07,5.07,0,0,0,5.07,5.07h11.85a5.08,5.08,0,0,0,5.08-5.07v-11.85A5.09,5.09,0,0,0,2422.9,1717.53Zm1.08,16.93a1.08,1.08,0,0,1-1.08,1.07h-11.85a1.07,1.07,0,0,1-1.07-1.07v-11.85a1.08,1.08,0,0,1,1.07-1.08h11.85a1.09,1.09,0,0,1,1.08,1.08Z"/><rect class="cls-3" x="2033.72" y="645.07" width="767.99" height="1023.98"/><rect class="cls-2" x="2033.72" y="645.07" width="767.99" height="1023.98"/><polygon class="cls-1" points="2033.72 645.07 2801.71 645.07 2801.71 1669.05 2801.72 1669.05 2801.72 645.05 2033.72 645.05 2033.72 645.07"/><polygon class="cls-2" points="2033.72 645.07 2801.71 645.07 2801.71 1669.05 2801.72 1669.05 2801.72 645.05 2033.72 645.05 2033.72 645.07"/><circle class="cls-3" cx="195.75" cy="1696.11" r="29.75"/><path class="cls-3" d="M167.5,1030.86h55a3.5,3.5,0,1,0,0-7h-55a3.5,3.5,0,0,0,0,7Z"/><polygon class="cls-3" points="13.5 1032.86 9.5 1032.86 9.5 1064.86 9.5 1067.86 9.5 1104.36 9.5 1107.36 9.5 1140.36 9.5 1143.36 9.5 1171.36 9.5 1174.36 9.5 1206.86 9.5 1209.86 9.5 1237.86 9.5 1240.86 9.5 1680.36 13.5 1680.36 13.5 1032.86"/><path class="cls-3" d="M378.5,1698.32a50,50,0,0,1-50.07,50H63.57a50,50,0,0,1-50.07-50v-12h-4v12a54,54,0,0,0,54.07,54H328.43a54,54,0,0,0,54.07-54v-12h-4Z"/><path class="cls-3" d="M3,1144.86v25l1.5,1.5h1v-28h-1Z"/><path class="cls-3" d="M3,1211.36v25l1.5,1.5h1v-28h-1Z"/><path class="cls-3" d="M3,1069.36v33.5l1.5,1.5h1v-36.5h-1Z"/><polygon class="cls-3" points="320.5 954.36 318.55 952.86 262.12 952.86 259.5 954.36 259.5 956.36 320.5 956.36 320.5 954.36"/><path class="cls-3" d="M195.5,1002.68a5.5,5.5,0,1,0-5.5-5.5A5.51,5.51,0,0,0,195.5,1002.68Zm0-8.64a3,3,0,1,1-3,3A3,3,0,0,1,195.5,994Z"/><path class="cls-3" d="M328.43,960.36H63.57a54,54,0,0,0-54.07,54v12.49h4v-12.53a50,50,0,0,1,50.07-50H328.43a50,50,0,0,1,50.07,50v12.53h4v-12.49a54,54,0,0,0-54.07-54Z"/><polygon class="cls-3" points="35.52 1072.37 355.5 1072.37 355.5 1072.36 35.5 1072.36 35.5 1640.36 35.52 1640.36 35.52 1072.37"/><path class="cls-3" d="M63.57,1744.33H328.43a46.09,46.09,0,0,0,46.07-46v-684a46.09,46.09,0,0,0-46.07-46H63.57a46.09,46.09,0,0,0-46.07,46v684A46.09,46.09,0,0,0,63.57,1744.33Zm132.18-14.47a33.75,33.75,0,1,1,33.75-33.75A33.75,33.75,0,0,1,195.75,1729.86Zm-.25-741.18a8.5,8.5,0,1,1-8.5,8.5A8.51,8.51,0,0,1,195.5,988.68Zm-28,31.18h55a7.5,7.5,0,1,1,0,15h-55a7.5,7.5,0,0,1,0-15Zm-136,52.5a4,4,0,0,1,4-4h320a4,4,0,0,1,4,4v568a4,4,0,0,1-4,4H35.5a4,4,0,0,1-4-4Z"/><rect class="cls-3" x="378.5" y="1032.86" width="4" height="647.5"/><path class="cls-4" d="M328.43,956.36H323.5v-3.48l-1.17-.9-2-1.5-.81-.62H261.33l-.7.4-2.62,1.5-1.51.86v3.74H63.57a58,58,0,0,0-58.07,58v50.49H3.26l-.88.88-1.5,1.5-.88.88v36l.88.88,1.5,1.5.88.88H5.5v33H3.26l-.88.88-1.5,1.5-.88.88v27.48l.88.88,1.5,1.5.88.88H5.5v32.5H3.26l-.88.88-1.5,1.5-.88.88v27.48l.88.88,1.5,1.5.88.88H5.5v457.49a58,58,0,0,0,58.07,58H328.43a58,58,0,0,0,58.07-58v-684a58,58,0,0,0-58.07-58ZM5.5,1237.86h-1l-1.5-1.5v-25l1.5-1.5h1Zm0-66.5h-1l-1.5-1.5v-25l1.5-1.5h1Zm0-67h-1l-1.5-1.5v-33.5l1.5-1.5h1Zm254-150,2.62-1.5h56.43l1.95,1.5v2h-61Zm-250,286.5v-208h4v647.5h-4Zm373,457.49a54,54,0,0,1-54.07,54H63.57a54,54,0,0,1-54.07-54v-12h4v12a50,50,0,0,0,50.07,50H328.43a50,50,0,0,0,50.07-50v-12h4Zm-365,0v-684a46.09,46.09,0,0,1,46.07-46H328.43a46.09,46.09,0,0,1,46.07,46v684a46.09,46.09,0,0,1-46.07,46H63.57A46.09,46.09,0,0,1,17.5,1698.32Zm365-18h-4v-647.5h4Zm0-653.5h-4v-12.53a50,50,0,0,0-50.07-50H63.57a50,50,0,0,0-50.07,50v12.53h-4v-12.49a54,54,0,0,1,54.07-54H328.43a54,54,0,0,1,54.07,54Z"/><path class="cls-4" d="M167.5,1034.86h55a7.5,7.5,0,1,0,0-15h-55a7.5,7.5,0,0,0,0,15Zm0-11h55a3.5,3.5,0,1,1,0,7h-55a3.5,3.5,0,0,1,0-7Z"/><path class="cls-4" d="M35.5,1644.36h320a4,4,0,0,0,4-4v-568a4,4,0,0,0-4-4H35.5a4,4,0,0,0-4,4v568A4,4,0,0,0,35.5,1644.36Zm0-572h320v568H35.5Z"/><path class="cls-4" d="M195.75,1662.36a33.75,33.75,0,1,0,33.75,33.75A33.75,33.75,0,0,0,195.75,1662.36Zm0,63.5a29.75,29.75,0,1,1,29.75-29.75A29.78,29.78,0,0,1,195.75,1725.86Z"/><path class="cls-4" d="M195.5,1005.68a8.5,8.5,0,1,0-8.5-8.5A8.51,8.51,0,0,0,195.5,1005.68Zm0-14a5.5,5.5,0,1,1-5.5,5.5A5.5,5.5,0,0,1,195.5,991.68Z"/><circle class="cls-4" cx="195.5" cy="997.04" r="3"/><rect class="cls-3" x="35.52" y="1072.37" width="319.98" height="567.99"/><rect class="cls-5" x="35.52" y="1072.37" width="319.98" height="567.99"/><polygon class="cls-4" points="35.52 1640.36 35.52 1640.37 355.51 1640.37 355.51 1072.37 355.5 1072.37 355.5 1640.36 35.52 1640.36"/><polygon class="cls-5" points="35.52 1640.36 35.52 1640.37 355.51 1640.37 355.51 1072.37 355.5 1072.37 355.5 1640.36 35.52 1640.36"/></g></g></svg>