<svg xmlns="http://www.w3.org/2000/svg" viewBox="0 0 448 448"><defs><style>.cls-1{fill:#5f9ba6;}</style></defs><title>twitter-b</title><g id="Layer_2" data-name="Layer 2"><g id="Layer_1-2" data-name="Layer 1"><g id="Layer_2-2" data-name="Layer 2"><g id="Layer_1-2-2" data-name="Layer 1-2"><path class="cls-1" d="M400,0H48A48,48,0,0,0,0,48V400a48,48,0,0,0,48,48H400a48,48,0,0,0,48-48V48A48,48,0,0,0,400,0ZM351.1,158.8c.2,2.8.2,5.7.2,8.5,0,86.7-66,186.6-186.6,186.6A185.76,185.76,0,0,1,64,324.5a136.71,136.71,0,0,0,15.8.8,131.51,131.51,0,0,0,81.4-28,65.65,65.65,0,0,1-61.3-45.5c10.1,1.5,19.2,1.5,29.6-1.2A65.59,65.59,0,0,1,77,186.2v-.8a65.57,65.57,0,0,0,29.6,8.3,65.44,65.44,0,0,1-29.2-54.6A64.71,64.71,0,0,1,86.3,106a186.22,186.22,0,0,0,135.2,68.6c-9.3-44.5,24-80.6,64-80.6a65.36,65.36,0,0,1,47.9,20.7A128.45,128.45,0,0,0,375,98.9,65.41,65.41,0,0,1,346.2,135,130.6,130.6,0,0,0,384,124.8,138,138,0,0,1,351.1,158.8Z"/></g></g></g></g></svg>